<?xml version="1.0" encoding="UTF-8" standalone="no"?><!DOCTYPE svg PUBLIC "-//W3C//DTD SVG 1.1//EN" "http://www.w3.org/Graphics/SVG/1.1/DTD/svg11.dtd"><svg width="100%" height="100%" viewBox="0 0 1167 1167" version="1.1" xmlns="http://www.w3.org/2000/svg" xmlns:xlink="http://www.w3.org/1999/xlink" xml:space="preserve" xmlns:serif="http://www.serif.com/" style="fill-rule:evenodd;clip-rule:evenodd;stroke-linejoin:round;stroke-miterlimit:2;"><rect id="Artboard1" x="0" y="0" width="1166.67" height="1166.67" style="fill:none;"/><g id="Sun"><path d="M256.766,210.95l-45.815,0l-0,45.816l45.815,-45.816Z" style="fill-rule:nonzero;"/><path d="M112.145,645.375l26.429,26.428l200.08,-39.791c6.477,32.73 19.333,63.149 37.259,89.919l-169.603,113.321l0,37.39l87.714,87.714l37.39,0l113.354,-169.636c26.753,17.934 57.158,30.849 89.887,37.325l-39.794,200.046l26.43,26.431l124.084,-0l26.428,-26.43l-39.791,-200.081c32.732,-6.476 63.154,-19.334 89.919,-37.257l113.321,169.603l37.39,-0l87.715,-87.715l-0,-37.39l-169.637,-113.353c17.919,-26.761 30.817,-57.162 37.291,-89.887l200.081,39.791l26.43,-26.428l-0,-124.084l-26.43,-26.43l-200.081,39.793c-6.476,-32.733 -19.334,-63.155 -37.257,-89.92l169.603,-113.321l-0,-37.389l-87.715,-87.715l-37.39,0l-113.353,169.636c-26.761,-17.918 -57.162,-30.815 -89.887,-37.291l39.791,-200.081l-26.428,-26.428l-124.084,-0l-26.429,26.428l39.793,200.081c-32.733,6.477 -63.156,19.335 -89.921,37.259l-113.32,-169.604l-37.39,0l-87.714,87.715l0,37.389l169.635,113.355c-17.918,26.76 -30.815,57.161 -37.291,89.886l-200.08,-39.793l-26.429,26.43l-0,124.084Z" style="fill-rule:nonzero;"/><path d="M89.105,550.946l-32.387,32.387l32.387,32.387l-0,-64.774Z" style="fill-rule:nonzero;"/><path d="M615.72,89.105l-32.388,-32.387l-32.386,32.387l64.774,-0Z" style="fill-rule:nonzero;"/><path d="M955.715,256.766l0,-45.816l-45.815,0l45.815,45.816Z" style="fill-rule:nonzero;"/><path d="M1077.56,615.72l32.388,-32.388l-32.388,-32.386l-0,64.774Z" style="fill-rule:nonzero;"/><path d="M909.9,955.715l45.816,0l-0,-45.815l-45.816,45.815Z" style="fill-rule:nonzero;"/><path d="M550.946,1077.56l32.387,32.388l32.387,-32.388l-64.774,-0Z" style="fill-rule:nonzero;"/><path d="M210.951,909.9l-0,45.816l45.816,-0l-45.816,-45.816Z" style="fill-rule:nonzero;"/></g></svg>