<svg width="500" height="500" viewBox="0 0 500 500" fill="none" xmlns="http://www.w3.org/2000/svg">
<path fill-rule="evenodd" clip-rule="evenodd" d="M238.894 61.9311C286.475 58.075 334.331 66.1562 375.784 86.929C420.778 109.476 463.021 140.303 480.467 182.987C498.156 226.267 489.257 274.441 469.886 317.167C451.378 357.987 420.728 397.03 375.092 415.398C332.781 432.428 285.384 407.554 238.894 410.142C187.278 413.015 132.642 456.197 89.4776 431.297C46.7325 406.639 68.3024 347.032 54.6912 303.882C41.986 263.605 -0.710834 227.45 12.5102 187.3C25.771 147.029 78.7821 130.147 119.287 107.716C156.975 86.8453 194.466 65.5316 238.894 61.9311Z" fill="#D05353"/>
<path opacity="0.504511" fill-rule="evenodd" clip-rule="evenodd" d="M445.942 362.754C451.817 406.722 309.345 435.4 186.715 415.386C64.0862 395.372 7.82978 317.214 66.3464 275.569C124.863 233.923 440.067 318.786 445.942 362.754Z" fill="#F9E784"/>
<path fill-rule="evenodd" clip-rule="evenodd" d="M272.724 159.574C269.582 158.015 265.393 159.823 267.14 163.945C269.012 168.359 275.933 168.413 279.842 168.326C279.451 168.305 278.191 164.258 277.76 163.646C276.488 161.842 274.656 160.534 272.724 159.574ZM308.932 238.707C309.725 239.385 308.996 238.77 308.932 238.707V238.707ZM269.697 179.537C267.858 180.944 267.771 183.427 269.273 185.108C271.061 187.109 274.328 187.036 276.766 186.841C277.869 186.753 283.758 186.281 282.362 185.317C282.469 185.357 282.693 185.456 282.933 185.59C283.063 186.062 283.198 186.532 283.34 187.001C283.305 187.021 283.275 187.043 283.238 187.063C283.278 187.045 283.307 187.026 283.342 187.009C284.758 191.69 286.774 196.148 289.413 200.318C288.426 199.929 287.403 199.634 286.366 199.503C283.293 199.114 276.83 201.503 280.267 205.596C283.562 209.52 288.692 205.31 292.432 204.73C296.059 209.795 300.058 214.649 304.25 219.341C303.993 219.422 303.767 219.59 303.638 219.851C301.957 218.997 300.205 217.776 298.648 217.446C296.403 216.969 291.798 216.68 290.101 218.692C288.014 221.164 290.251 223.173 292.718 223.647C296.294 224.335 300.975 222.587 304.416 221.406C304.81 221.475 305.239 221.36 305.496 221.045C305.572 221.02 305.648 220.996 305.722 220.972C309.966 225.641 314.373 230.156 318.753 234.572C318.706 234.57 318.66 234.567 318.611 234.564C317.469 233.815 316.243 233.199 314.915 232.877C311.842 232.128 308.226 232.124 305.733 234.349C303.249 236.564 302.369 240.438 304.939 242.925C310.082 247.904 317.661 236.552 320.256 236.078C324.707 240.519 329.413 244.668 334.194 248.733C333.651 248.568 333.094 248.446 332.519 248.391C327.831 247.942 316.828 253.693 322.581 259.35C327.594 264.28 333.397 254.791 337.437 251.473C341.942 255.262 346.471 259.025 350.873 262.934C348.472 262.296 346.152 262.203 343.578 262.981C340.915 263.787 336.617 265.799 338.301 269.397C340.013 273.055 345.174 271.391 347.861 270.229C349.327 269.596 352.267 267.457 354.847 266.557C361.872 273.192 367.956 280.501 372.563 289.11C375.438 294.486 377.621 300.229 379.157 306.132C380.137 309.9 382.069 316.228 381.682 321.132C383.526 311.316 380.192 299.527 376.602 290.753C373.3 282.686 368.36 275.603 362.572 269.228C364.025 264.858 376.249 258.554 368.941 254.493C365.06 252.346 361.086 255.909 360.237 259.682C359.655 262.275 360.543 265.532 361.485 268.049C359.664 266.105 357.771 264.224 355.821 262.406C353.126 259.893 350.366 257.452 347.58 255.043C352.171 250.727 356.516 238.39 350.361 236.373C341.271 233.402 345.647 250.23 346.282 253.384C346.462 253.395 346.602 253.34 346.705 253.223C346.654 253.512 346.595 253.821 346.523 254.133C341.19 249.545 335.779 245.047 330.545 240.35C331.017 240.001 331.766 238.669 332.356 237.96C333.685 236.361 334.957 234.691 335.887 232.821C337.355 229.865 338.772 225.151 334.879 223.413C330.645 221.519 328.633 226.851 328.604 230.031C328.584 232.231 329.183 234.321 329.495 236.477C329.592 237.149 329.217 240.181 330.132 238.877C330.089 239.358 330.083 239.706 330.104 239.953C329.165 239.105 328.232 238.248 327.306 237.385C327.349 237.276 327.381 237.158 327.388 237.02C327.438 236.072 326.484 235.706 325.815 235.984C324.593 234.822 323.382 233.645 322.193 232.445C319.674 229.902 317.117 227.286 314.579 224.615C315.129 224.141 314.91 223.486 315.425 222.983C315.94 222.482 316.953 222.204 317.557 221.739C319.078 220.566 320.34 218.858 321.252 217.178C322.758 214.401 324.704 208.575 320.304 207.251C315.77 205.884 313.468 211.493 313.177 214.999C313.12 215.678 313.628 221.798 314.018 224.021C309.32 219.056 304.7 213.906 300.514 208.665C301.783 208.654 305.382 206.052 306.109 205.342C307.884 203.611 310.705 199.785 307.594 197.76C304.827 195.964 301.417 198.565 300.234 201.093C300.039 201.509 299.353 205.383 299.3 207.122C297.567 204.899 295.915 202.664 294.377 200.422C293.352 198.931 292.394 197.4 291.497 195.838C291.713 195.715 291.916 195.502 292.108 195.236C296.722 194.453 302.605 187.249 297.185 184.743C294.605 183.551 291.806 186.011 290.542 188.025C290.283 188.437 289.864 190.509 289.522 192.143C286.943 186.966 284.972 181.485 283.472 175.865C283.874 175.765 284.214 175.458 284.259 174.93C286.499 173.652 288.268 172.588 289.832 170.131C290.804 168.604 292.553 165.117 289.699 164.27C285.983 163.168 283.65 168.845 283.346 171.641C283.311 171.966 283.312 172.91 283.324 173.775C283.195 173.758 283.065 173.76 282.937 173.782C282.084 170.302 281.403 166.778 280.861 163.247C282.889 162.594 283.239 151.939 281.889 150.422C278.871 147.025 276.742 151.932 276.903 154.526C277.094 157.584 278.479 160.366 280.128 162.834C280.305 163.096 280.254 163.083 280.3 162.719C280.326 162.899 280.386 163.032 280.475 163.128C280.39 164.738 280.224 166.386 280.304 167.81C280.532 171.889 281.007 175.992 281.697 180.019C281.864 180.998 282.056 181.97 282.272 182.933C280.642 181.543 278.444 180.309 277.585 179.923C275.353 178.922 271.914 177.842 269.697 179.537ZM381.944 321.145C381.84 322.568 381.584 323.87 381.105 324.944C381.464 323.721 381.74 322.45 381.944 321.145Z" fill="#F9E784"/>
<path fill-rule="evenodd" clip-rule="evenodd" d="M156.386 74.0584C158.631 72.9448 161.623 74.2363 160.375 77.1804C159.038 80.333 154.094 80.3719 151.302 80.3095C151.581 80.2948 152.481 77.4038 152.789 76.9669C153.698 75.6782 155.006 74.7443 156.386 74.0584ZM130.541 131.501C129.748 132.18 130.476 131.565 130.541 131.501V131.501ZM158.995 88.6956C160.337 89.712 160.4 91.5076 159.303 92.7237C157.996 94.1713 155.611 94.1198 153.831 93.9797C153.026 93.9163 148.726 93.5773 149.746 92.8796C149.667 92.9089 149.504 92.9802 149.328 93.0771C149.234 93.4186 149.135 93.7588 149.031 94.0976C149.057 94.1122 149.078 94.1279 149.105 94.1425C149.076 94.1298 149.055 94.1161 149.03 94.1032C147.994 97.4889 146.52 100.713 144.592 103.729C145.313 103.448 146.06 103.234 146.817 103.139C149.061 102.857 153.779 104.582 151.268 107.543C148.861 110.381 145.117 107.339 142.386 106.921C139.736 110.585 136.814 114.096 133.752 117.491C133.94 117.549 134.104 117.67 134.198 117.859C135.426 117.241 136.706 116.357 137.842 116.118C139.482 115.772 142.844 115.562 144.083 117.015C145.606 118.803 143.971 120.256 142.17 120.6C139.559 121.099 136.142 119.836 133.63 118.983C133.342 119.034 133.029 118.951 132.841 118.723C132.786 118.705 132.73 118.687 132.676 118.67C129.576 122.048 126.356 125.314 123.157 128.509C123.191 128.508 123.225 128.506 123.26 128.504C124.095 127.961 124.99 127.516 125.96 127.282C128.204 126.739 130.844 126.735 132.664 128.343C134.477 129.944 135.118 132.745 133.24 134.544C129.483 138.147 123.953 129.941 122.059 129.599C118.808 132.812 115.37 135.813 111.878 138.755C112.274 138.635 112.681 138.547 113.101 138.507C116.524 138.181 124.555 142.335 120.353 146.428C116.691 149.994 112.458 143.135 109.509 140.737C106.218 143.478 102.91 146.201 99.6944 149.03C101.448 148.568 103.142 148.499 105.021 149.061C106.965 149.643 110.102 151.096 108.871 153.698C107.62 156.344 103.853 155.142 101.891 154.303C100.82 153.846 98.6752 152.301 96.7913 151.651C91.6599 156.451 87.2147 161.738 83.8482 167.966C81.7466 171.854 80.1511 176.008 79.0274 180.276C78.3101 183.001 76.8973 187.578 77.1778 191.123C75.8355 184.026 78.2735 175.501 80.8984 169.155C83.3119 163.32 86.9221 158.197 91.15 153.585C90.0912 150.425 81.1683 145.872 86.5054 142.933C89.3396 141.379 92.2403 143.954 92.8582 146.681C93.2827 148.556 92.6333 150.912 91.9445 152.732C93.2745 151.326 94.6571 149.965 96.0817 148.65C98.0505 146.831 100.066 145.066 102.101 143.322C98.7509 140.203 95.583 131.284 100.078 129.823C106.716 127.671 103.514 139.841 103.05 142.122C102.919 142.13 102.816 142.091 102.741 142.006C102.778 142.215 102.821 142.439 102.874 142.664C106.769 139.344 110.722 136.09 114.545 132.692C114.201 132.44 113.654 131.476 113.224 130.964C112.254 129.808 111.326 128.601 110.648 127.249C109.576 125.113 108.544 121.705 111.387 120.446C114.479 119.075 115.946 122.93 115.966 125.23C115.98 126.82 115.542 128.331 115.313 129.891C115.242 130.377 115.515 132.569 114.847 131.626C114.878 131.974 114.883 132.226 114.867 132.404C115.553 131.791 116.234 131.171 116.911 130.547C116.88 130.468 116.857 130.382 116.851 130.282C116.815 129.597 117.512 129.332 118 129.533C118.893 128.692 119.777 127.841 120.646 126.972C122.487 125.132 124.354 123.24 126.208 121.308C125.807 120.966 125.967 120.491 125.591 120.128C125.215 119.766 124.476 119.566 124.035 119.229C122.925 118.382 122.004 117.147 121.339 115.932C120.241 113.925 118.822 109.713 122.034 108.754C125.346 107.764 127.024 111.819 127.236 114.354C127.277 114.845 126.903 119.271 126.618 120.878C130.05 117.286 133.425 113.56 136.483 109.77C135.557 109.761 132.93 107.882 132.4 107.369C131.104 106.117 129.046 103.352 131.318 101.886C133.339 100.587 135.828 102.466 136.691 104.294C136.833 104.595 137.332 107.396 137.371 108.653C138.636 107.045 139.844 105.428 140.967 103.806C141.716 102.728 142.417 101.621 143.072 100.49C142.914 100.402 142.766 100.248 142.626 100.056C139.257 99.4911 134.965 94.2844 138.923 92.4701C140.807 91.6074 142.85 93.3852 143.772 94.8411C143.961 95.1389 144.266 96.6368 144.515 97.8182C146.4 94.0735 147.841 90.1094 148.939 86.0451C148.645 85.9731 148.397 85.7512 148.365 85.3694C146.729 84.4462 145.438 83.6774 144.297 81.9011C143.588 80.7978 142.312 78.2769 144.397 77.6632C147.11 76.8648 148.811 80.9693 149.032 82.9913C149.058 83.226 149.057 83.9087 149.048 84.5342C149.142 84.5215 149.237 84.5229 149.33 84.5392C149.955 82.0225 150.453 79.4736 150.85 76.9204C149.37 76.449 149.117 68.7446 150.104 67.6471C152.308 65.1895 153.861 68.7371 153.743 70.6126C153.602 72.8239 152.59 74.836 151.385 76.6217C151.256 76.8109 151.293 76.8017 151.259 76.5383C151.241 76.6685 151.197 76.7646 151.132 76.8342C151.193 77.9982 151.314 79.1898 151.255 80.2198C151.087 83.1696 150.738 86.1365 150.234 89.0485C150.111 89.7567 149.97 90.4591 149.812 91.1555C151.003 90.1503 152.608 89.257 153.236 88.9775C154.866 88.253 157.377 87.4704 158.995 88.6956ZM76.9112 190.843C76.9899 191.791 77.2235 192.656 77.6835 193.365C77.3458 192.555 77.0926 191.711 76.9112 190.843Z" fill="#B5E48C"/>
<path opacity="0.7" fill-rule="evenodd" clip-rule="evenodd" d="M333.853 255.92C342.58 255.467 353.374 260.564 354.305 270.056C354.982 276.953 354.772 283.83 355.819 290.716C356.656 296.22 358.426 301.504 360.841 306.517C363.162 311.338 367.978 315.442 369.231 320.592C370.029 323.873 369.582 328.49 368.481 331.7C367.142 335.602 367.854 335.294 370.522 338.569C375.749 344.986 380.456 351.567 383.785 359.232C388.58 370.272 391.724 383.177 389.944 395.261C389.718 396.796 389.449 402.303 387.337 402.688C384.978 403.118 386.081 399.969 386.207 398.951C387.01 392.459 387.723 386.785 386.755 380.192C383.019 354.754 364.78 337.993 352.904 316.403C352.251 315.29 350.873 312.639 349.915 310.89C348.402 308.128 346.881 302.874 344.833 300.826C340.975 296.969 344.521 304.724 345.273 306.204C346.223 308.077 347.269 310.067 348.243 311.708C352.698 319.314 357.672 327.617 362.274 335.458C342.371 339.995 328.354 316.054 323.013 300.315C318.613 287.347 313.348 257.029 333.853 255.92Z" fill="#B5E48C"/>
<path opacity="0.7" fill-rule="evenodd" clip-rule="evenodd" d="M450.83 231.839C436.24 232.997 426.873 242.629 422.513 256.102C420.163 263.363 419.894 270.822 418.588 278.283C416.623 289.509 412.397 298.017 404.136 306.014C401.577 308.491 399.692 311.034 398.352 313.755C395.691 316.472 393.375 319.546 391.673 323.304C389.5 328.104 388.885 333.863 391.394 338.649C392.069 339.935 393.752 342.517 395.497 343.691C388.965 357.609 385.374 372.852 385.779 388.077C386.023 397.267 386.472 406.46 386.995 415.639C387.136 418.104 387.938 422.173 389.143 418.04C390.245 414.259 388.863 408.324 388.735 404.375C388.112 385.134 387.58 367.64 395.496 349.664C396.326 347.78 397.206 345.911 398.123 344.057C398.176 344.026 398.226 343.988 398.277 343.951C398.312 343.978 398.344 344.007 398.379 344.034C398.437 343.929 398.517 343.805 398.611 343.666C398.874 343.395 399.103 343.052 399.322 342.669C400.024 341.695 400.818 340.552 400.823 339.925C400.823 339.92 400.82 339.913 400.82 339.908C405.72 331.904 411.333 324.342 417.066 316.927C417.023 316.981 423.285 308.45 422.317 313.168C421.85 315.441 417.244 319.771 415.384 322.179C411.269 327.536 406.437 334.324 402.421 340.888C401.881 341.198 401.118 342.724 400.566 343.86C400.261 344.436 399.976 345.016 399.697 345.522C413.925 350.225 424.993 340.751 432.54 329.731C432.549 329.718 432.557 329.705 432.566 329.692C434.863 326.647 437.215 323.623 440.155 321.216C445.058 317.2 450.31 316.491 456.091 314.515C471.858 309.125 478.562 288.68 480.691 273.509C483.093 256.395 471.343 230.151 450.83 231.839Z" fill="#89C5CC"/>
<path opacity="0.7" fill-rule="evenodd" clip-rule="evenodd" d="M422.009 183.911C407.035 199.504 399.801 221.133 394.072 241.465C387.674 264.175 383.449 287.235 383.286 310.846C383.18 326.358 382.758 341.968 383.663 357.462C383.984 362.965 384.532 368.478 385.404 373.922C385.476 374.369 387.426 386.524 389.292 383.691C390.354 382.081 387.293 371.082 387.062 369.251C385.761 358.933 385.459 348.539 385.522 338.147C385.627 321.037 385.122 304.014 386.856 286.967C387.114 284.422 387.319 281.748 387.923 279.258C388.564 276.611 387.747 277.767 389.837 276.719C391.868 275.7 394.377 275.845 396.484 274.567C404.841 269.497 409.116 256.473 412.443 247.928C416.248 238.156 418.561 227.735 420.409 217.452C421.765 209.896 422.735 202.386 423.284 194.733C423.457 192.321 423.467 189.799 423.941 187.427C424.068 186.788 424.709 185.656 424.686 185.089C424.636 183.89 423.913 183.185 423.854 182.178C423.227 182.742 422.612 183.32 422.009 183.911Z" fill="#89C5CC"/>
<path opacity="0.7" fill-rule="evenodd" clip-rule="evenodd" d="M340.359 391.668C340.359 417.455 361.253 438.36 387.026 438.36C412.8 438.36 433.694 417.455 433.694 391.668" fill="#89C5CC"/>
<path opacity="0.7" fill-rule="evenodd" clip-rule="evenodd" d="M390.771 391.816H388.305C388.476 388.721 388.702 385.631 389.219 382.57C391.197 370.863 397.383 353.668 410.948 351.768C411.449 351.697 413.29 351.685 415.52 351.816C416.577 351.225 417.76 350.868 419.008 350.786C430.558 349.934 443.456 359.257 449.027 368.959C453.518 376.781 452.762 387.053 449.988 395.363C448.13 400.927 444.076 408.86 437.315 408.937C428.856 409.034 428.448 398.573 428.285 392.458C428.067 384.328 427.04 377.246 420.638 371.704C419.146 370.414 417.515 369.278 416.007 368.005C413.647 366.012 411.039 363.972 410.735 360.675C410.315 356.127 412.881 355.309 416.798 356.154C417.466 356.298 424.193 359.318 423.197 356.931C422.893 356.201 421.782 355.624 420.381 355.191C416.753 354.796 412.427 354.338 411.183 354.612C397.761 357.558 392.535 376.16 391.147 387.979C390.998 389.255 390.876 390.534 390.771 391.816V391.816Z" fill="#B5E48C"/>
<path opacity="0.5" fill-rule="evenodd" clip-rule="evenodd" d="M135.934 170.641C138.62 166.809 143.605 157.075 147.386 155.705C149.822 154.823 149.112 163.948 149.142 165.688C149.259 172.419 148.604 179.108 147.795 185.782C146.338 197.82 141.573 208.541 135.038 218.786C131.675 224.058 127.731 229.394 122.268 232.684C119.753 234.198 116.727 234.452 114.244 235.757C111.351 237.277 112.926 236.048 111.623 239.064C109.813 243.251 109.234 248.652 108.396 253.12C104.551 273.627 95.2407 382.038 96.8547 402.898C96.9981 404.747 94.4213 405.189 94.2927 402.932C93.609 390.964 99.5253 308.083 102.51 280.978C105.495 253.874 108.516 229.928 111.544 220.551C115.218 209.174 121.854 195.493 127.378 184.884C129.944 179.955 132.741 175.196 135.934 170.641Z" fill="#B5E48C"/>
<path opacity="0.5" fill-rule="evenodd" clip-rule="evenodd" d="M155.873 303.577C162.864 298.442 170.431 308.133 164.105 313.269C160.608 316.108 156.952 315.098 154.894 312.732C153.558 314.362 152.307 316.065 151.106 317.505C147.445 321.89 143.985 326.38 140.678 330.974C133.808 340.52 127.921 350.604 121.766 360.504C115.691 370.275 109.665 380.096 104.159 390.114C99.4949 398.602 93.278 408.587 91.6811 417.892C94.104 398.158 103.298 379.189 114.246 361.791C125.105 344.536 137.568 325.692 154.382 312.075C152.671 309.557 152.623 305.963 155.873 303.577Z" fill="#B5E48C"/>
<path opacity="0.5" fill-rule="evenodd" clip-rule="evenodd" d="M23.2231 255.447C27.1349 256.212 33.5269 265.066 36.7515 268.44C40.5836 272.449 44.0604 276.722 47.3376 281.199C54.3928 290.835 60.7024 301.081 66.0678 311.765C74.8147 329.183 81.8221 347.063 86.9077 366.03C90.0207 377.64 92.0363 389.674 93.2309 401.624C93.4564 403.877 95.8179 421.252 92.4152 421.721C89.3548 422.142 90.3 408.527 90.1524 406.675C88.4834 385.782 83.4838 365.452 76.5293 345.759C75.0145 341.469 73.6072 336.215 71.1847 332.354C69.4401 329.573 71.1722 330.543 68.1064 329.491C65.4739 328.587 62.4745 328.808 59.7788 327.701C53.9226 325.298 49.2335 320.633 45.1232 315.941C37.1353 306.822 30.8054 296.957 27.5058 285.272C25.6755 278.794 23.9935 272.277 23.0601 265.598C22.8186 263.872 20.7034 254.954 23.2231 255.447Z" fill="#B5E48C"/>
<path opacity="0.5" fill-rule="evenodd" clip-rule="evenodd" d="M38.6604 108.131C53.3956 133.7 65.5045 161.787 73.3232 190.234C78.0605 207.47 81.3734 225.157 84.665 242.716C89.7615 269.903 94.5822 297.089 95.9534 324.76C97.333 352.591 100.061 384.69 90.9528 411.496C95.5024 384.281 91.1709 355.313 90.4039 327.929C90.0374 314.856 88.9754 301.911 87.5822 288.915C86.2302 276.308 84.0215 263.761 81.9646 251.253C80.9627 245.161 79.9105 239.079 78.8391 233C78.5193 231.186 78.3842 225.804 77.2343 224.565C76.077 223.318 70.1722 222.809 68.3183 221.894C64.5853 220.051 61.0739 217.433 57.9662 214.667C52.0087 209.364 46.826 202.435 42.7354 195.605C33.2709 179.8 29.4869 160.513 29.6782 142.21C29.7149 138.656 35.427 100.388 33.1329 99.8611C33.271 99.6993 33.4017 99.5322 33.5249 99.3583C35.2617 102.268 36.966 105.197 38.6604 108.131Z" fill="#89C5CC"/>
<path opacity="0.5" fill-rule="evenodd" clip-rule="evenodd" d="M197.702 200.347C197.93 200.019 199.41 197.737 198.664 197.883C200.182 197.586 196.578 200.4 200.358 198.673C198.563 200.369 199.599 202.573 199.623 204.855C199.662 208.562 199.042 212.237 198.345 215.864C197.242 221.597 195.6 227.17 193.216 232.502C188.021 244.122 179.199 255.308 168.725 262.573C163.555 266.16 158.488 267.381 152.591 269.032C148.866 270.075 148.571 272.003 146.594 275.62C142.478 283.152 138.435 290.657 134.805 298.443C130.47 307.741 126.263 317.049 122.293 326.51C108.922 358.38 98.0388 391.398 92.3234 425.568C92.1834 405.431 96.8391 384.693 102.712 365.499C106.99 351.516 112.559 338.036 118.499 324.692C119.938 321.459 122.119 317.301 122.73 313.732C123.158 311.232 121.85 308.827 121.251 306.193C118.915 295.935 119.082 284.442 121.133 274.13C123.395 262.758 129.935 257.48 140.998 255.869C145.044 255.28 150.187 255.496 153.897 253.77C157.939 251.89 159.606 245.711 161.905 241.745C168.078 231.092 175.413 220.874 183.836 211.897C186.168 209.412 188.676 207.118 191.337 204.993C193.015 203.652 196.559 201.999 197.702 200.347Z" fill="#89C5CC"/>
<path opacity="0.5" fill-rule="evenodd" clip-rule="evenodd" d="M73.648 403.821H112.91C114.676 403.821 116.107 405.252 116.107 407.019C116.107 407.175 116.095 407.331 116.073 407.485L113.038 428.074C112.113 434.35 106.73 439 100.389 439H86.1692C79.8284 439 74.4456 434.35 73.5205 428.074L70.4859 407.485C70.2283 405.738 71.4353 404.113 73.1817 403.855C73.3361 403.832 73.492 403.821 73.648 403.821Z" fill="#B5E48C"/>
<path fill-rule="evenodd" clip-rule="evenodd" d="M38.2489 414.346C38.2489 427.962 39.3228 439 53.7372 439C68.1516 439 69.2255 427.962 69.2255 414.346" fill="#F9E784"/>
<path fill-rule="evenodd" clip-rule="evenodd" d="M58.0254 405.851C57.497 406.765 57.0259 407.697 56.6098 408.644C56.5951 406.695 56.7028 404.731 56.9969 402.741C57.4996 399.332 58.2675 395.941 58.9891 392.556C59.5076 390.123 59.4749 385.752 61.443 383.813C61.9826 383.394 62.1125 384.216 62.1125 384.573C62.1193 384.649 62.111 383.117 61.5872 383.384C58.4735 384.993 57.4646 390.052 56.4678 392.585C55.0134 396.282 53.7759 400.062 53.2664 403.909C53.1376 404.88 53.0675 405.852 53.0513 406.822C52.9455 406.562 52.8461 406.301 52.7361 406.042C50.939 401.825 48.5138 397.71 45.489 393.915C44.7444 392.982 35.3827 383.768 34.6499 385.178C34.7222 385.383 34.8736 385.553 35.1044 385.688C35.118 385.703 35.1183 385.695 35.1104 385.672C35.6603 386.561 37.2235 387.933 37.7104 388.712C38.9359 390.671 39.8883 392.751 40.8561 394.79C42.901 399.101 44.7979 403.455 46.6368 407.818C47.065 408.835 47.5113 409.845 47.9666 410.853C43.2731 404.079 37.0118 397.93 28.3928 394.41C31.3366 395.908 33.2666 398.727 35.2547 400.886C37.6524 403.49 40.1779 406.023 42.5802 408.624C45.4136 411.692 48.7476 414.923 51.473 418.318C54.1129 423.864 56.6783 429.415 58.2619 435.244C57.613 433.23 58.211 430.447 58.0999 428.333C58.0118 426.651 57.8152 424.982 57.546 423.317C57.8789 424.068 58.1658 424.82 58.2958 425.519C58.1771 424.346 58.0404 423.181 57.8936 422.021C58.2705 420.936 58.6407 419.923 58.8908 419.089C60.1723 414.809 61.6983 410.602 63.7763 406.502C65.6992 402.71 67.9049 398.966 70.3083 395.336C71.4295 393.643 72.566 391.957 73.6954 390.268C74.4347 389.162 75.1385 387.392 76.1678 386.333C69.5149 392.419 62.2462 398.548 58.0254 405.851Z" fill="#F9E784"/>
<path fill-rule="evenodd" clip-rule="evenodd" d="M461.587 128.031C459.68 121.666 455.202 116.684 450.554 112.12C441.505 103.233 436.638 97.739 433.413 84.7401C431.517 77.0951 429.586 68.9938 423.571 63.4472C419.191 59.4081 411.652 56.0146 405.794 58.9069C396.782 64.2887 394.362 75.3331 395.271 85.2227C396.397 97.4801 402.12 105.038 413.113 109.553C419.308 112.095 423.425 115.45 426.788 121.297C429.478 125.971 431.046 131.825 434.426 136.063C439.479 142.398 445.802 145.214 453.597 144.162C446.296 130.722 437.766 117.157 427.478 105.841C426.515 104.703 420.835 100.349 421.981 98.4105C423.243 96.2758 429.074 104.295 429.033 104.246C432.022 107.68 434.789 111.329 437.506 115.013C437.499 115.017 437.491 115.019 437.483 115.022C440.28 118.803 443.055 122.639 445.777 126.523C446.878 128.166 447.95 129.83 448.975 131.535C450.48 134.038 452.869 141.142 455.332 142.681C455.859 143.01 456.347 143.194 456.802 143.27C458.483 146.023 460.118 148.798 461.673 151.606C465.734 158.94 469.22 166.684 470.82 174.964C471.287 177.38 470.957 186.421 472.606 188.165C475.62 191.356 474.737 185.211 474.557 183.356C473.059 167.997 467.548 154.911 459.546 141.998C462.005 138.786 462.36 130.61 461.587 128.031Z" fill="#F9E784"/>
<path fill-rule="evenodd" clip-rule="evenodd" d="M358.343 135.452C361.52 131.706 369.16 131.07 373.832 131.321C379.614 131.631 385.552 133.039 391.052 134.742C400.113 137.547 408.918 142.665 416.898 147.619C417.859 148.216 429.707 155.344 428.658 156.595C427.619 157.835 415.989 149.367 413.397 147.907C407.865 144.792 402.792 141.108 396.695 139.051C390.382 136.92 383.705 136.076 377.067 136.135C376.215 136.142 373.435 135.548 373.375 136.809C373.317 138.042 377.915 137.399 378.726 137.406C382.075 137.437 385.445 137.752 388.747 138.333C394.933 139.421 400.749 141.613 406.047 144.975C404.568 148.414 401.025 149.999 397.307 149.139C394.094 148.395 390.962 146.56 387.816 146.029C385.649 145.664 383.479 145.881 381.378 146.492C375.835 148.104 372.639 151.405 366.545 149.109C361.768 147.308 353.778 140.84 358.343 135.452Z" fill="#F9E784"/>
<path fill-rule="evenodd" clip-rule="evenodd" d="M361.937 99.998H363.44C363.335 98.089 363.198 96.183 362.875 94.2954C361.667 87.2197 357.888 76.8275 349.6 75.679C349.294 75.6362 348.17 75.629 346.807 75.7081C346.161 75.351 345.438 75.135 344.676 75.0853C337.62 74.5704 329.739 80.2052 326.336 86.069C323.592 90.7968 324.054 97.005 325.749 102.028C326.884 105.39 329.361 110.185 333.491 110.232C338.659 110.29 338.908 103.968 339.008 100.272C339.141 95.3582 339.769 91.0778 343.68 87.7285C344.592 86.9482 345.588 86.2618 346.509 85.4923C347.951 84.288 349.545 83.0549 349.731 81.0625C349.987 78.3137 348.419 77.8191 346.026 78.3298C345.618 78.4167 341.508 80.2421 342.117 78.7993C342.302 78.3585 342.981 78.0092 343.837 77.7475C346.054 77.509 348.697 77.2323 349.457 77.3976C357.657 79.1783 360.849 90.4214 361.697 97.5646C361.793 98.3735 361.87 99.1851 361.937 99.998H361.937Z" fill="#F9E784"/>
<g clip-path="url(#clip0_2_2)">
<path d="M274.122 407.517C271.778 404.238 268.605 401.839 264.615 400.941C261.137 400.159 257.56 400.292 254.024 400.319L209.311 400.664C205.481 400.693 201.81 404.007 201.988 407.978C202.164 411.916 205.206 415.324 209.311 415.292C222.408 415.192 235.506 415.091 248.604 414.99C251.692 414.966 254.781 414.91 257.869 414.921C258.563 414.923 259.253 414.959 259.946 414.967C260.114 414.969 260.235 414.968 260.321 414.964C260.342 414.971 260.36 414.976 260.388 414.984C260.75 415.083 261.12 415.152 261.484 415.246C261.357 415.249 261.72 415.476 261.902 415.552C261.927 415.602 261.981 415.689 262.07 415.825C262.194 416.058 262.563 416.766 262.578 416.743C263.132 418.142 263.588 419.576 263.945 421.037C264.796 424.259 264.983 424.932 265.105 427.955C265.26 431.773 268.363 435.451 272.429 435.269C276.263 435.098 279.918 432.05 279.752 427.955C279.472 421.055 278.259 413.303 274.122 407.517Z" fill="#F9E784"/>
<path d="M211.939 424.022C211.099 418.939 210.275 413.852 209.419 408.772C208.551 403.618 206.776 398.898 202.761 395.516C201.688 394.612 200.575 393.768 199.458 392.927C199.065 392.631 198.673 392.335 198.285 392.033C198.262 392.015 198.247 392.004 198.227 391.988C198.184 391.951 198.133 391.908 198.064 391.85C196.391 390.435 194.773 388.957 193.233 387.386C191.865 385.991 190.557 384.537 189.308 383.023C188.996 382.645 188.688 382.263 188.385 381.878C188.332 381.812 188.051 381.449 187.865 381.211C187.693 380.974 187.377 380.545 187.324 380.47C186.969 379.969 186.62 379.463 186.278 378.952C183.946 375.461 181.926 371.772 180.242 367.927C180.075 367.546 179.912 367.162 179.753 366.777C179.711 366.659 179.656 366.508 179.582 366.306C179.243 365.375 178.904 364.444 178.594 363.501C177.935 361.498 177.369 359.466 176.894 357.404C176.66 356.386 176.449 355.363 176.261 354.335C176.165 353.806 176.074 353.276 175.99 352.745C175.976 352.657 175.894 352.084 175.845 351.76C175.809 351.434 175.743 350.859 175.734 350.77C175.68 350.234 175.633 349.698 175.591 349.162C175.497 347.955 175.434 346.746 175.401 345.535C175.345 343.383 175.383 341.231 175.517 339.079C175.593 337.87 175.701 336.665 175.834 335.461C175.842 335.387 175.849 335.328 175.854 335.275C175.862 335.221 175.872 335.16 175.883 335.084C175.982 334.419 176.085 333.755 176.201 333.093C176.64 330.579 177.212 328.089 177.913 325.635C178.245 324.474 178.605 323.323 178.994 322.181C179.168 321.674 179.346 321.169 179.531 320.666C179.519 320.699 180.072 319.288 180.079 319.24C182.274 314.061 185.863 309.34 185.868 303.456C185.872 299.473 182.498 295.657 178.545 295.841C176.575 295.915 174.71 296.751 173.344 298.171C171.978 299.592 171.217 301.487 171.222 303.456C171.222 303.546 171.222 303.622 171.222 303.696C171.185 303.82 171.154 303.924 171.126 304.015C170.698 304.944 170.174 305.827 169.704 306.733C168.418 309.212 167.32 311.773 166.277 314.371C164.569 318.602 163.262 322.984 162.373 327.458C160.44 337.263 160.29 347.334 161.93 357.192C164.769 374.478 174.133 391.025 187.15 402.148C188.28 403.113 189.437 404.046 190.605 404.96C191.089 405.338 191.576 405.709 192.066 406.078C192.297 406.252 193.257 407.008 192.835 406.641C193.742 407.415 194.124 407.804 194.357 408.374C194.391 408.505 194.437 408.684 194.499 408.927C194.663 409.57 194.819 410.211 194.949 410.862C196.082 416.555 196.87 422.342 197.816 428.071C198.467 432.008 203.318 434.57 206.824 433.39C210.905 432.016 212.636 428.24 211.939 424.022Z" fill="#F9E784"/>
<path d="M274.863 438.786C271.787 438.794 268.834 437.583 266.651 435.419C264.469 433.255 263.234 430.315 263.219 427.243V418.899C254.473 419.877 224.525 419.651 215.94 418.273V426.909C215.917 429.979 214.68 432.915 212.499 435.077C210.318 437.239 207.369 438.453 204.296 438.453C201.223 438.453 198.275 437.239 196.094 435.077C193.912 432.915 192.676 429.979 192.652 426.909V409.953C181.025 403.501 171.332 394.067 164.574 382.624C157.815 371.182 154.237 358.145 154.206 344.86C154.206 322.08 164.543 300.829 182.564 286.557C194.282 277.247 208.519 271.647 223.446 270.478C225.473 270.319 227.511 270.239 229.506 270.239C236.532 270.239 268.235 271.323 276.189 273.609L294.326 255.633C294.593 255.365 294.934 255.182 295.304 255.109C295.675 255.035 296.06 255.073 296.409 255.218C296.761 255.358 297.062 255.601 297.273 255.915C297.484 256.228 297.595 256.599 297.592 256.977V259.835L301.123 256.341C301.39 256.073 301.73 255.89 302.1 255.816C302.471 255.742 302.855 255.781 303.204 255.926C303.556 256.066 303.858 256.309 304.069 256.622C304.281 256.936 304.392 257.307 304.389 257.685V289.624C313.49 297.819 320.426 308.13 324.584 319.643C328.741 331.156 329.991 343.516 328.222 355.627C326.454 367.738 321.721 379.226 314.445 389.073C307.168 398.92 297.572 406.823 286.506 412.08V427.243C286.491 430.315 285.257 433.255 283.074 435.419C280.891 437.583 277.938 438.794 274.863 438.786V438.786ZM264.135 417.863V427.243C264.158 430.07 265.298 432.773 267.308 434.764C269.317 436.755 272.033 437.872 274.863 437.872C277.693 437.872 280.409 436.755 282.418 434.764C284.428 432.773 285.568 430.07 285.591 427.243V411.502L285.852 411.378C298.268 405.494 308.809 396.287 316.303 384.78C325.853 370.097 329.824 352.485 327.499 335.13C325.173 317.776 316.704 301.826 303.625 290.168L303.473 290.032V257.685C303.476 257.489 303.419 257.296 303.31 257.133C303.2 256.97 303.043 256.844 302.859 256.773C302.677 256.695 302.475 256.674 302.281 256.713C302.086 256.751 301.908 256.848 301.769 256.989L296.676 262.027V256.977C296.68 256.78 296.623 256.587 296.513 256.424C296.403 256.261 296.246 256.136 296.062 256.064C295.88 255.987 295.677 255.966 295.483 256.005C295.288 256.044 295.109 256.14 294.971 256.282L276.445 274.643L276.182 274.561C268.787 272.249 236.586 271.153 229.506 271.153C227.535 271.153 225.52 271.233 223.518 271.39C208.772 272.544 194.708 278.076 183.133 287.274C165.332 301.371 155.122 322.361 155.122 344.86C155.152 358.028 158.712 370.947 165.431 382.276C172.151 393.605 181.784 402.931 193.332 409.284L193.568 409.414V426.909C193.591 429.736 194.732 432.439 196.742 434.429C198.751 436.419 201.466 437.536 204.296 437.536C207.126 437.536 209.841 436.419 211.851 434.429C213.86 432.439 215.001 429.736 215.025 426.909V417.179L215.567 417.28C223.282 418.73 255.767 418.959 263.617 417.93L264.135 417.863Z" fill="#111111"/>
<path d="M212.814 220.455L162.129 235.669C160.517 236.155 159.164 237.26 158.367 238.742C157.57 240.223 157.395 241.96 157.879 243.571C158.364 245.182 159.469 246.535 160.952 247.332C162.434 248.13 164.173 248.307 165.786 247.825L210.141 234.508L211.07 234.229C211.258 229.446 212.557 224.773 214.864 220.578C214.575 220.448 214.265 220.368 213.949 220.341C213.567 220.304 213.181 220.342 212.814 220.455Z" fill="#E58F65"/>
<path d="M164.91 251.068C164.237 251.067 163.581 250.854 163.036 250.46C162.491 250.066 162.084 249.511 161.872 248.873L158.702 239.321C158.57 238.922 158.517 238.501 158.548 238.082C158.578 237.662 158.691 237.253 158.88 236.878C159.069 236.502 159.33 236.167 159.649 235.893C159.967 235.618 160.336 235.409 160.736 235.276L201.988 221.621C202.387 221.489 202.809 221.437 203.228 221.467C203.648 221.498 204.058 221.61 204.434 221.799C204.81 221.987 205.145 222.248 205.42 222.566C205.695 222.884 205.905 223.253 206.037 223.652L209.206 233.204C209.47 233.99 209.417 234.848 209.059 235.595C208.701 236.342 208.065 236.921 207.287 237.209C207.249 237.223 207.211 237.237 207.172 237.249L165.921 250.904C165.595 251.012 165.253 251.068 164.91 251.068Z" fill="#2F2E41"/>
<path d="M242.165 203.49C233.84 203.493 225.842 206.732 219.865 212.521C213.887 218.311 210.4 226.196 210.141 234.508C210.132 234.832 210.127 235.162 210.127 235.491C210.127 241.82 212.006 248.007 215.527 253.269C219.047 258.532 224.051 262.633 229.905 265.055C235.759 267.477 242.201 268.111 248.416 266.876C254.631 265.642 260.339 262.594 264.82 258.119C269.301 253.643 272.352 247.941 273.588 241.734C274.824 235.526 274.19 229.092 271.765 223.245C269.34 217.397 265.234 212.399 259.965 208.883C254.696 205.367 248.502 203.49 242.165 203.49V203.49ZM242.165 266.577C233.914 266.568 226.003 263.29 220.168 257.463C214.333 251.635 211.051 243.733 211.043 235.491C211.043 235.065 211.052 234.645 211.07 234.229C211.318 228.14 213.352 222.257 216.92 217.314C220.488 212.37 225.433 208.583 231.138 206.423C236.844 204.264 243.059 203.827 249.011 205.167C254.964 206.508 260.39 209.566 264.616 213.962C268.842 218.358 271.681 223.898 272.779 229.893C273.878 235.888 273.189 242.073 270.797 247.679C268.404 253.286 264.415 258.066 259.325 261.426C254.234 264.786 248.267 266.577 242.165 266.577V266.577Z" fill="#111111"/>
<path d="M269.169 235.491C269.169 242.644 266.324 249.504 261.26 254.563C256.196 259.621 249.327 262.463 242.165 262.463C235.004 262.463 228.135 259.621 223.071 254.563C218.007 249.504 215.162 242.644 215.162 235.491C215.162 234.636 215.203 233.795 215.281 232.963C215.931 226.059 219.219 219.671 224.461 215.124C229.704 210.578 236.498 208.223 243.432 208.548C250.367 208.874 256.91 211.854 261.703 216.871C266.495 221.888 269.169 228.556 269.169 235.491V235.491Z" fill="#F9E784"/>
<path d="M250.207 237.283C249.552 236.423 248.691 235.742 247.704 235.303C246.485 234.79 245.227 234.378 243.941 234.069V226.727C245.917 227.025 247.771 227.869 249.292 229.164L250.784 225.986C249.926 225.223 248.94 224.615 247.873 224.19C246.689 223.711 245.447 223.393 244.179 223.244V219.522H240.724V223.28C239.389 223.43 238.102 223.861 236.948 224.546C235.905 225.163 235.027 226.022 234.389 227.052C233.78 228.056 233.465 229.21 233.478 230.384C233.419 231.656 233.788 232.912 234.527 233.95C235.206 234.849 236.104 235.56 237.135 236.016C238.373 236.544 239.653 236.968 240.962 237.283V244.318C238.63 244.143 236.408 243.257 234.595 241.781L233.103 244.963C234.117 245.8 235.269 246.453 236.508 246.892C237.866 247.377 239.285 247.673 240.724 247.77V251.459H244.179V247.701C246.099 247.492 247.899 246.667 249.31 245.351C249.932 244.756 250.423 244.038 250.752 243.243C251.081 242.449 251.242 241.594 251.223 240.734C251.281 239.503 250.923 238.287 250.207 237.283V237.283ZM240.962 233.292C240.12 233.037 239.337 232.617 238.659 232.057C238.391 231.819 238.179 231.524 238.038 231.193C237.897 230.863 237.831 230.505 237.845 230.147C237.82 229.332 238.119 228.541 238.678 227.948C239.297 227.325 240.095 226.911 240.962 226.764V233.292ZM246.111 243.02C245.527 243.618 244.767 244.014 243.941 244.149V238.096C244.73 238.308 245.468 238.676 246.111 239.18C246.354 239.388 246.548 239.648 246.677 239.941C246.806 240.233 246.868 240.552 246.857 240.871C246.889 241.656 246.622 242.423 246.111 243.02V243.02Z" fill="#E58F65"/>
<path d="M166.381 289.784C165.673 289.783 164.986 289.548 164.425 289.117C163.864 288.686 163.462 288.082 163.28 287.4L161.554 280.876C161.338 280.056 161.457 279.184 161.884 278.451C162.31 277.718 163.011 277.184 163.831 276.967L218.269 262.599C219.091 262.384 219.964 262.504 220.697 262.931C221.431 263.358 221.965 264.058 222.183 264.878L223.645 270.405L223.371 270.426C209.409 271.51 196.051 276.566 184.876 284.996L184.796 285.034L167.193 289.679C166.928 289.749 166.655 289.784 166.381 289.784V289.784Z" fill="#2F2E41"/>
<path d="M157.365 322.007C150.979 321.065 144.871 318.758 139.459 315.245C136.777 313.505 134.295 311.477 132.056 309.197C129.846 306.946 127.733 304.387 126.638 301.389C125.585 298.616 125.639 295.544 126.79 292.809C127.924 290.091 130.092 287.933 132.817 286.809C135.558 285.717 138.87 285.6 141.538 286.796C142.81 287.352 143.91 288.237 144.726 289.359C145.105 289.876 145.386 290.458 145.554 291.077C145.711 291.637 145.725 292.228 145.596 292.795C145.439 293.362 145.163 293.888 144.787 294.339C144.41 294.79 143.941 295.156 143.411 295.411C142.245 296.009 140.981 296.394 139.68 296.548C138.371 296.726 136.49 296.888 135.438 295.839C135.221 295.631 135.051 295.38 134.938 295.103C134.859 294.89 134.832 294.661 134.859 294.436C134.843 294.535 134.922 294.22 134.918 294.233C134.901 294.279 134.829 294.393 134.932 294.218C134.964 294.161 134.999 294.105 135.038 294.052C135.003 294.097 134.927 294.172 135.064 294.044C135.176 293.92 135.321 293.831 135.482 293.786C135.545 293.767 135.61 293.752 135.673 293.735C135.835 293.691 135.512 293.738 135.677 293.732C135.741 293.73 135.806 293.732 135.869 293.729C136.031 293.722 135.709 293.685 135.865 293.724C135.925 293.739 135.985 293.754 136.044 293.772C136.173 293.813 135.953 293.678 136.04 293.779C136.143 293.898 135.932 293.664 136.049 293.778C136.107 293.835 136.162 293.896 136.213 293.959C136.415 294.158 136.687 294.27 136.971 294.27C137.255 294.27 137.528 294.158 137.73 293.959C137.925 293.755 138.034 293.483 138.034 293.201C138.034 292.919 137.925 292.647 137.73 292.443C136.672 291.133 134.582 291.457 133.512 292.564C132.147 293.976 132.688 296.214 134.015 297.446C135.518 298.84 137.647 298.937 139.58 298.703C141.214 298.547 142.806 298.098 144.28 297.377C145.745 296.658 146.89 295.422 147.495 293.908C147.768 293.1 147.866 292.243 147.783 291.394C147.699 290.546 147.436 289.724 147.012 288.985C145.305 285.779 141.77 284.136 138.277 283.852C136.478 283.711 134.669 283.928 132.955 284.49C131.241 285.052 129.656 285.948 128.291 287.126C125.659 289.492 124.039 292.778 123.765 296.303C123.46 299.959 124.88 303.509 126.95 306.459C129.117 309.456 131.703 312.128 134.63 314.392C140.351 318.954 147.061 322.115 154.224 323.622C155.076 323.798 155.933 323.948 156.794 324.073C157.068 324.14 157.357 324.099 157.602 323.96C157.848 323.821 158.031 323.594 158.114 323.325C158.187 323.051 158.15 322.759 158.01 322.513C157.87 322.266 157.638 322.084 157.365 322.007L157.365 322.007Z" fill="#111111"/>
<path d="M259.606 275.434C250.25 275.302 240.923 275.539 231.626 276.145C228.448 276.353 225.699 277.475 225.699 279.36C225.699 280.937 228.426 282.784 231.626 282.575C240.918 281.969 250.245 281.732 259.606 281.863C267.237 281.971 267.233 275.541 259.606 275.434Z" fill="#F9E784"/>
<path d="M245.777 281.545C244.766 281.545 221.014 281.507 221.014 278.23C221.014 274.953 244.766 274.916 245.777 274.916C246.789 274.916 270.541 274.953 270.541 278.23C270.541 281.507 246.789 281.545 245.777 281.545ZM221.943 278.23C222.593 279.224 231.324 280.631 245.777 280.631C260.231 280.631 268.962 279.224 269.612 278.23C268.962 277.237 260.231 275.83 245.777 275.83C231.324 275.83 222.593 277.237 221.943 278.23V278.23Z" fill="#111111"/>
<path d="M321.138 367.695C326.396 367.55 332.94 367.367 337.981 363.689C339.483 362.549 340.716 361.094 341.595 359.428C342.474 357.761 342.978 355.923 343.071 354.042C343.174 351.136 342.123 348.601 340.112 346.903C337.479 344.681 333.634 344.16 329.49 345.376L333.784 314.039L330.632 313.608L325.585 350.448L328.217 349.242C331.268 347.844 335.456 347.133 338.059 349.33C338.698 349.904 339.196 350.618 339.514 351.416C339.832 352.214 339.961 353.074 339.892 353.93C339.815 355.33 339.437 356.697 338.783 357.939C338.13 359.18 337.216 360.266 336.105 361.123C332.182 363.985 326.965 364.354 321.049 364.52L321.138 367.695Z" fill="#111111"/>
<path d="M312.424 316.742H295.292V319.919H312.424V316.742Z" fill="#111111"/>
<path d="M174.133 304.397C173.371 304.395 172.634 304.121 172.055 303.626C171.476 303.13 171.092 302.444 170.973 301.692L169.928 295.026C169.797 294.188 170.005 293.332 170.505 292.646C171.005 291.961 171.758 291.501 172.597 291.369L228.221 282.664C229.06 282.533 229.917 282.741 230.603 283.241C231.29 283.74 231.749 284.492 231.882 285.33L232.927 291.996C233.058 292.834 232.85 293.69 232.35 294.376C231.85 295.062 231.097 295.521 230.258 295.653L174.634 304.358C174.469 304.384 174.301 304.397 174.133 304.397Z" fill="#2F2E41"/>
<path d="M151.113 226.278C164.005 226.278 174.456 215.839 174.456 202.963C174.456 190.087 164.005 179.648 151.113 179.648C138.222 179.648 127.771 190.087 127.771 202.963C127.771 215.839 138.222 226.278 151.113 226.278Z" fill="#E58F65"/>
<path d="M164.329 208.995C165.075 208.735 165.757 208.318 166.328 207.772C166.706 207.383 166.994 206.916 167.172 206.404C167.351 205.892 167.415 205.348 167.36 204.808C167.328 204.424 167.208 204.052 167.008 203.722C166.809 203.392 166.536 203.112 166.21 202.905C165.365 202.386 164.249 202.405 163.122 202.927L162.992 193.826L162.077 193.839L162.23 204.538L162.926 204.082C163.734 203.554 164.895 203.17 165.731 203.684C165.937 203.819 166.11 204.001 166.234 204.214C166.359 204.428 166.433 204.667 166.45 204.913C166.489 205.315 166.44 205.72 166.308 206.101C166.176 206.483 165.963 206.831 165.683 207.123C164.691 208.106 163.222 208.436 161.546 208.737L161.708 209.637C162.599 209.502 163.477 209.287 164.329 208.995V208.995Z" fill="#2F2E41"/>
<path d="M172.418 193.188L167.543 193.925L167.68 194.829L172.555 194.091L172.418 193.188Z" fill="#2F2E41"/>
<path d="M157.032 195.514L152.157 196.252L152.294 197.156L157.169 196.418L157.032 195.514Z" fill="#2F2E41"/>
<path d="M166.539 303.99C165.699 303.988 164.88 303.731 164.191 303.253C163.501 302.774 162.974 302.098 162.678 301.313L146.585 258.263C144.618 252.984 144.828 247.14 147.169 242.015C149.51 236.89 153.791 232.901 159.072 230.925L172.159 226.044C172.665 225.854 173.203 225.766 173.743 225.785C174.284 225.803 174.815 225.929 175.307 226.153C175.797 226.372 176.239 226.686 176.606 227.078C176.974 227.469 177.259 227.93 177.446 228.432L207.259 284.655C207.452 285.162 207.544 285.702 207.527 286.244C207.511 286.787 207.388 287.32 207.164 287.815C206.94 288.309 206.621 288.755 206.224 289.126C205.828 289.496 205.362 289.785 204.853 289.975L167.978 303.728C167.518 303.901 167.031 303.989 166.539 303.99Z" fill="#2F2E41"/>
<path d="M168.188 227.525L197.768 267.034L177.753 227.939C177.587 227.483 177.334 227.064 177.006 226.706C176.679 226.348 176.284 226.057 175.844 225.852C175.404 225.646 174.928 225.529 174.443 225.507C173.958 225.485 173.473 225.559 173.016 225.724L168.188 227.525Z" fill="#F9E784"/>
<path d="M215.025 257.53L162.209 254.132C161.377 254.078 160.563 253.861 159.814 253.494C159.066 253.126 158.397 252.615 157.846 251.989C157.296 251.363 156.874 250.635 156.605 249.846C156.335 249.058 156.225 248.224 156.278 247.392C156.332 246.561 156.549 245.748 156.917 245C157.285 244.252 157.797 243.584 158.424 243.034C159.05 242.484 159.779 242.063 160.569 241.794C161.359 241.525 162.193 241.415 163.026 241.468L215.841 244.866C216.231 244.891 216.612 244.992 216.963 245.165C217.313 245.337 217.627 245.576 217.885 245.869C218.143 246.162 218.34 246.503 218.466 246.873C218.592 247.242 218.644 247.633 218.619 248.022L218.185 254.756C218.134 255.542 217.773 256.276 217.18 256.796C216.587 257.317 215.812 257.581 215.025 257.53Z" fill="#E58F65"/>
<path d="M200.912 259.708C200.842 259.708 200.772 259.706 200.702 259.702H200.702L157.333 256.911C156.913 256.884 156.502 256.775 156.125 256.59C155.747 256.404 155.41 256.146 155.132 255.831C154.854 255.515 154.642 255.148 154.506 254.75C154.37 254.352 154.314 253.932 154.341 253.512L155.083 242.011C155.11 241.592 155.22 241.182 155.405 240.805C155.591 240.428 155.849 240.091 156.165 239.813C156.481 239.536 156.849 239.324 157.247 239.188C157.645 239.053 158.067 238.997 158.486 239.024L201.855 241.814C202.703 241.869 203.494 242.258 204.055 242.895C204.615 243.533 204.9 244.366 204.847 245.213L204.105 256.714C204.064 257.33 203.846 257.922 203.477 258.417C203.108 258.913 202.604 259.291 202.024 259.508C201.668 259.641 201.292 259.709 200.912 259.708V259.708Z" fill="#2F2E41"/>
<path d="M150.846 187.459C153.916 184.821 158.133 187.181 161.655 186.768C165.024 186.373 167.684 183.354 168.364 180.147C169.157 176.406 167.213 172.658 164.347 170.325C161.208 167.77 157.046 167.037 153.101 167.509C148.58 168.051 144.446 170.156 140.736 172.702C137.155 175.083 133.862 177.87 130.922 181.008C128.29 183.912 126.06 187.373 125.348 191.28C124.701 194.831 125.195 198.766 127.296 201.774C128.411 203.316 129.904 204.545 131.633 205.342C133.435 206.226 135.357 206.858 137.103 207.857C139.743 209.368 142.309 212.501 141.482 215.762C141.304 216.474 140.954 217.132 140.463 217.677C139.872 218.332 138.807 217.467 139.399 216.81C140.439 215.657 140.398 214.118 139.844 212.741C139.185 211.19 138.017 209.907 136.533 209.105C134.705 208.061 132.688 207.417 130.815 206.467C129.022 205.598 127.466 204.31 126.278 202.712C124.036 199.6 123.366 195.55 123.874 191.803C124.424 187.749 126.51 184.065 129.124 180.978C131.969 177.618 135.464 174.774 139.034 172.219C142.865 169.478 147.098 167.16 151.781 166.322C155.841 165.595 160.241 166.042 163.792 168.252C167.105 170.315 169.646 173.863 169.899 177.828C169.99 179.632 169.598 181.428 168.763 183.03C167.928 184.632 166.681 185.984 165.15 186.945C163.579 187.884 161.752 188.306 159.928 188.153C157.977 188.028 156.025 187.432 154.062 187.597C153.174 187.651 152.327 187.993 151.651 188.57C150.98 189.147 150.18 188.031 150.846 187.459V187.459Z" fill="#2F2E41"/>
<path d="M419.455 439H81.545C81.4007 439 81.2625 438.942 81.1606 438.84C81.0588 438.738 81.0016 438.6 81.0016 438.456C81.0016 438.312 81.0588 438.173 81.1606 438.071C81.2625 437.969 81.4007 437.912 81.545 437.911H419.455C419.6 437.911 419.738 437.969 419.84 438.071C419.943 438.173 420 438.311 420 438.456C420 438.6 419.943 438.738 419.84 438.841C419.738 438.943 419.6 439 419.455 439V439Z" fill="#111111"/>
</g>
<defs>
<clipPath id="clip0_2_2">
<rect width="339" height="273" fill="white" transform="translate(81 166)"/>
</clipPath>
</defs>
</svg>
